<svg width="156" height="32" viewBox="0 0 156 32"   xmlns="http://www.w3.org/2000/svg">
<path fill-rule="evenodd" clip-rule="evenodd" d="M152.122 26.5754C152.072 26.6548 152 26.6996 151.904 26.7228C151.634 26.7573 151.266 26.7832 150.799 26.7958C150.335 26.8035 149.841 26.8162 149.307 26.8365C148.777 26.8562 148.237 26.8674 147.698 26.8674H146.25C144.196 26.8674 142.657 26.4477 141.624 25.6169C140.589 24.7887 140.067 23.4034 140.067 21.4701V10.3029C140.067 8.36807 140.589 6.98559 141.624 6.15329C142.657 5.3217 144.196 4.90625 146.25 4.90625C146.672 4.90625 147.149 4.91116 147.681 4.92099C148.216 4.93222 148.74 4.93993 149.265 4.94976C149.791 4.95888 150.278 4.97923 150.74 5.0066C151.207 5.03678 151.596 5.06134 151.904 5.08099C152 5.10064 152.072 5.14836 152.122 5.22485C152.166 5.30205 152.195 5.38907 152.195 5.48802V6.93507C152.195 7.16875 152.085 7.28595 151.877 7.28595H146.279C145.503 7.28595 144.885 7.33928 144.421 7.44385C143.956 7.55262 143.598 7.72595 143.346 7.96667C143.097 8.20878 142.929 8.52387 142.843 8.90844C142.753 9.29792 142.707 9.76038 142.707 10.3029V14.3345H151.612C151.769 14.3345 151.904 14.3928 152.018 14.505C152.13 14.6222 152.195 14.7535 152.195 14.9079V15.9942C152.195 16.1479 152.13 16.2812 152.018 16.3949C151.904 16.51 151.769 16.5689 151.612 16.5689H142.707V21.4588C142.707 22.0203 142.753 22.4919 142.843 22.8702C142.929 23.2505 143.097 23.5607 143.346 23.8056C143.598 24.0477 143.956 24.221 144.421 24.3249C144.885 24.4344 145.503 24.4884 146.279 24.4884H151.877C152.085 24.4884 152.195 24.6042 152.195 24.835V26.3165C152.195 26.4092 152.166 26.4997 152.122 26.5754Z" fill="#172126"/>
<path fill-rule="evenodd" clip-rule="evenodd" d="M136.619 26.3003C136.506 26.3874 136.371 26.4477 136.213 26.4877C135.908 26.5467 135.597 26.6014 135.289 26.6512C134.977 26.6948 134.64 26.7355 134.274 26.7635C133.905 26.7958 133.485 26.8162 133.026 26.8365C132.559 26.8562 132.022 26.8674 131.4 26.8674C130.513 26.8674 129.613 26.7305 128.704 26.459C127.798 26.1894 126.973 25.7115 126.241 25.0231C125.508 24.3369 124.906 23.4175 124.443 22.268C123.973 21.1178 123.748 19.6623 123.748 17.9016V13.8706C123.748 12.0924 123.973 10.6264 124.443 9.47546C124.906 8.32526 125.508 7.41227 126.241 6.73295C126.973 6.05715 127.798 5.58416 128.704 5.31187C129.613 5.04099 130.513 4.90625 131.4 4.90625C132.33 4.90625 133.211 4.95888 134.052 5.06696C134.896 5.17292 135.637 5.27398 136.271 5.36942C136.584 5.40942 136.737 5.53503 136.737 5.74697V7.2277C136.737 7.32455 136.714 7.40033 136.678 7.45928C136.637 7.51612 136.542 7.54561 136.389 7.54561H136.303C136.031 7.52735 135.709 7.5028 135.33 7.47332C134.954 7.44385 134.547 7.41577 134.111 7.387C133.678 7.35823 133.228 7.33226 132.764 7.31402C132.301 7.29436 131.852 7.28595 131.427 7.28595C130.713 7.28595 130.053 7.39683 129.445 7.61929C128.839 7.84174 128.305 8.20878 127.849 8.72317C127.396 9.23265 127.032 9.90916 126.779 10.7513C126.512 11.5941 126.386 12.632 126.386 13.8706V17.9016C126.386 19.1205 126.512 20.1508 126.779 20.9893C127.032 21.8329 127.396 22.5101 127.849 23.021C128.305 23.5361 128.839 23.9067 129.445 24.1403C130.053 24.3705 130.713 24.4884 131.427 24.4884C131.835 24.4884 132.265 24.4772 132.718 24.4596C133.175 24.4379 133.617 24.4176 134.052 24.4007C134.492 24.381 134.891 24.3565 135.262 24.3284C135.623 24.2962 135.944 24.2737 136.213 24.2561H136.333C136.637 24.2561 136.796 24.4091 136.796 24.7186V25.9081C136.796 26.0814 136.737 26.2126 136.619 26.3003Z" fill="#172126"/>
<path fill-rule="evenodd" clip-rule="evenodd" d="M119.305 26.4888C119.206 26.6052 119.084 26.6642 118.931 26.6642H117.337C117.182 26.6642 117.056 26.6052 116.96 26.4888C116.863 26.3744 116.816 26.2382 116.816 26.0824V5.66307C116.816 5.50658 116.863 5.37745 116.96 5.27008C117.056 5.16341 117.182 5.10938 117.337 5.10938H118.931C119.084 5.10938 119.206 5.16341 119.305 5.27008C119.401 5.37745 119.451 5.50658 119.451 5.66307V26.0824C119.451 26.2382 119.401 26.3744 119.305 26.4888Z" fill="#172126"/>
<path fill-rule="evenodd" clip-rule="evenodd" d="M113.271 5.60272C113.271 5.68061 113.261 5.73956 113.246 5.77746L107.912 24.6627C107.772 25.1274 107.595 25.4985 107.374 25.7779C107.152 26.0607 106.907 26.281 106.645 26.4445C106.386 26.6109 106.107 26.7239 105.808 26.78C105.504 26.8376 105.218 26.8685 104.952 26.8685C104.68 26.8685 104.404 26.8376 104.11 26.78C103.82 26.7239 103.541 26.6109 103.269 26.4445C102.997 26.281 102.752 26.0607 102.53 25.7779C102.308 25.4985 102.128 25.1274 101.992 24.6627L96.6268 5.77746C96.6043 5.73956 96.6016 5.68061 96.6016 5.60272C96.6016 5.44903 96.6507 5.32763 96.7454 5.24061C96.8415 5.15429 96.9671 5.10938 97.1207 5.10938H98.801C98.9188 5.10938 99.0262 5.15429 99.1223 5.24061C99.2163 5.32763 99.2851 5.42798 99.3251 5.54588L104.371 24.0227C104.487 24.429 104.68 24.6325 104.952 24.6325C105.2 24.6325 105.387 24.429 105.504 24.0227L110.578 5.54588C110.614 5.42798 110.678 5.32763 110.764 5.24061C110.854 5.15429 110.955 5.10938 111.072 5.10938H112.783C113.108 5.10938 113.271 5.27499 113.271 5.60272Z" fill="#172126"/>
<path fill-rule="evenodd" clip-rule="evenodd" d="M95.4385 26.2856C95.4385 26.5375 95.3123 26.6632 95.0625 26.6632H93.2067C93.0293 26.6632 92.8903 26.6512 92.7866 26.6189C92.6827 26.5909 92.5691 26.4779 92.4526 26.2856L87.263 17.6413H86.5087C86.0226 17.6413 85.5623 17.6363 85.1323 17.6258C84.6931 17.6174 84.0919 17.5935 83.3215 17.5528V26.0814C83.3215 26.2372 83.2668 26.3733 83.1706 26.4877C83.0767 26.6043 82.9504 26.6632 82.7953 26.6632H81.2301C81.0764 26.6632 80.9509 26.6043 80.8548 26.4877C80.7551 26.3733 80.7109 26.2372 80.7109 26.0814V5.77644C80.7109 5.56381 80.7551 5.41433 80.8548 5.32661C80.9509 5.23959 81.1298 5.17783 81.4061 5.13783C81.7135 5.10064 82.0762 5.06696 82.4887 5.03678C82.9104 5.0066 83.3454 4.98274 83.7979 4.9645C84.2497 4.94344 84.7107 4.93222 85.1723 4.92099C85.6339 4.91116 86.0836 4.90625 86.5087 4.90625C87.6489 4.90625 88.718 5.01222 89.7122 5.22485C90.7085 5.43889 91.57 5.78627 92.2926 6.26979C93.0167 6.75471 93.5871 7.39051 94.0094 8.18632C94.4233 8.97861 94.6282 9.9646 94.6282 11.1464V11.3485C94.6282 12.1597 94.516 12.8917 94.2935 13.5408C94.0718 14.1899 93.7534 14.7535 93.352 15.2363C92.943 15.7226 92.4603 16.1282 91.899 16.4566C91.3413 16.7858 90.7309 17.0377 90.0757 17.2096L95.3522 26.0218C95.4062 26.1221 95.4385 26.2071 95.4385 26.2856ZM92.0176 11.1562C92.0176 9.70073 91.5553 8.69159 90.6285 8.12877C89.6995 7.56525 88.3231 7.28595 86.5087 7.28595H85.7252C85.4347 7.28595 85.1358 7.29086 84.8383 7.29858C84.5395 7.3098 84.2532 7.32033 83.9859 7.32876C83.7164 7.33928 83.4941 7.35332 83.3215 7.37157V15.35C83.9543 15.3689 84.5654 15.3843 85.145 15.3935C85.7252 15.4026 86.1776 15.4075 86.5087 15.4075C87.3991 15.4075 88.1876 15.3444 88.8766 15.2187C89.5586 15.0924 90.1345 14.8742 90.5948 14.5626C91.0614 14.2545 91.4149 13.8398 91.6549 13.3261C91.899 12.8117 92.0176 12.1569 92.0176 11.3618V11.1562Z" fill="#172126"/>
<path fill-rule="evenodd" clip-rule="evenodd" d="M76.7761 26.5754C76.7299 26.6548 76.6534 26.6996 76.5586 26.7228C76.292 26.7573 75.9196 26.7832 75.4593 26.7958C74.9969 26.8035 74.4954 26.8162 73.9643 26.8365C73.4325 26.8562 72.8965 26.8674 72.3549 26.8674H70.9047C68.8539 26.8674 67.3112 26.4477 66.2784 25.6169C65.2428 24.7887 64.7266 23.4034 64.7266 21.4701V10.3029C64.7266 8.36807 65.2428 6.98559 66.2784 6.15329C67.3112 5.3217 68.8539 4.90625 70.9047 4.90625C71.3319 4.90625 71.8048 4.91116 72.34 4.92099C72.8697 4.93222 73.3988 4.93993 73.925 4.94976C74.4442 4.95888 74.938 4.97923 75.4004 5.0066C75.8669 5.03678 76.25 5.06134 76.5586 5.08099C76.6534 5.10064 76.7299 5.14836 76.7761 5.22485C76.826 5.30205 76.8484 5.38907 76.8484 5.48802V6.93507C76.8484 7.16875 76.7446 7.28595 76.532 7.28595H70.9334C70.163 7.28595 69.5443 7.33928 69.0764 7.44385C68.6112 7.55262 68.2576 7.72595 68.005 7.96667C67.7538 8.20878 67.5875 8.52387 67.4985 8.90844C67.4122 9.29792 67.3652 9.76038 67.3652 10.3029V14.3345H76.2682C76.4262 14.3345 76.5586 14.3928 76.6724 14.505C76.7937 14.6222 76.8484 14.7535 76.8484 14.9079V15.9942C76.8484 16.1479 76.7937 16.2812 76.6724 16.3949C76.5586 16.51 76.4262 16.5689 76.2682 16.5689H67.3652V21.4588C67.3652 22.0203 67.4122 22.4919 67.4985 22.8702C67.5875 23.2505 67.7538 23.5607 68.005 23.8056C68.2576 24.0477 68.6112 24.221 69.0764 24.3249C69.5443 24.4344 70.163 24.4884 70.9334 24.4884H76.532C76.7446 24.4884 76.8484 24.6042 76.8484 24.835V26.3165C76.8484 26.4092 76.826 26.4997 76.7761 26.5754Z" fill="#172126"/>
<path fill-rule="evenodd" clip-rule="evenodd" d="M61.6971 21.0645C61.6971 21.7606 61.5933 22.456 61.3807 23.1522C61.1681 23.8483 60.797 24.4744 60.2631 25.0231C59.7341 25.5762 59.0002 26.0182 58.0763 26.3572C57.1474 26.6948 55.9666 26.8674 54.5375 26.8674C53.509 26.8674 52.6138 26.8225 51.8385 26.7355C51.0668 26.6512 50.3595 26.5586 49.7204 26.459C49.4679 26.4197 49.3149 26.3649 49.2588 26.2856C49.2013 26.2071 49.169 26.0905 49.169 25.9389V24.7782C49.169 24.6217 49.2139 24.506 49.3149 24.4281C49.4138 24.3523 49.5267 24.313 49.6629 24.313H49.7492C50.0789 24.3523 50.4494 24.381 50.8668 24.4007C51.2822 24.4176 51.7073 24.4344 52.143 24.4428C52.5773 24.4554 53.0024 24.4652 53.4198 24.4744C53.8352 24.4835 54.2064 24.4884 54.5375 24.4884C55.4068 24.4884 56.1258 24.4056 56.6955 24.2414C57.266 24.0757 57.715 23.8442 58.0461 23.5432C58.3751 23.2449 58.6052 22.8814 58.7414 22.456C58.874 22.0315 58.9463 21.567 58.9463 21.0645C58.9463 20.6974 58.8866 20.3627 58.7701 20.0638C58.6565 19.7634 58.4615 19.4679 58.1899 19.1795C57.9178 18.8883 57.5599 18.5837 57.1172 18.2658C56.6745 17.9451 56.1168 17.583 55.4657 17.1766L52.6544 15.4665C51.3194 14.6517 50.3182 13.8362 49.6489 13.0138C48.9838 12.1934 48.6484 11.2011 48.6484 10.0404C48.6484 8.28246 49.2553 6.98559 50.462 6.15329C51.6729 5.3217 53.3833 4.90625 55.6116 4.90625C56.0347 4.90625 56.483 4.91678 56.9538 4.93572C57.4287 4.95467 57.896 4.97923 58.3485 5.0066C58.8052 5.03678 59.2352 5.07538 59.638 5.1245C60.0457 5.17292 60.3816 5.21643 60.6567 5.25292C60.9843 5.31187 61.1506 5.47749 61.1506 5.74697V6.99612C61.1506 7.30419 60.9843 7.45928 60.6567 7.45928H60.597C59.9593 7.42139 59.1812 7.38279 58.2636 7.34279C57.3424 7.30419 56.4605 7.28595 55.6116 7.28595C54.1025 7.28595 53.0123 7.47893 52.3458 7.86561C51.6807 8.25298 51.3446 8.97721 51.3446 10.0404C51.3446 10.7169 51.5958 11.3071 52.0981 11.8095C52.6012 12.3134 53.4002 12.8924 54.5003 13.5506L57.1586 15.1451C57.9914 15.6496 58.6937 16.1331 59.2675 16.5963C59.8457 17.0609 60.3227 17.524 60.6854 17.9893C61.0566 18.4532 61.3133 18.9381 61.467 19.4399C61.6207 19.9437 61.6971 20.4841 61.6971 21.0645Z" fill="#172126"/>
<path fill-rule="evenodd" clip-rule="evenodd" d="M46.4661 10.6321C46.3401 10.7509 46.2001 10.8095 46.0446 10.8095H42.0916V26.5055C42.0916 26.6621 42.0317 26.7973 41.9178 26.9175C41.801 27.0369 41.6595 27.0956 41.5111 27.0956H35.8131C35.6576 27.0956 35.5175 27.0369 35.4043 26.9175C35.2853 26.7973 35.2326 26.6621 35.2326 26.5055V10.8095H31.1635C31.0044 10.8095 30.8687 10.7509 30.7561 10.6321C30.6379 10.5155 30.5781 10.376 30.5781 10.218V5.72492C30.5781 5.56755 30.6379 5.42949 30.7561 5.31289C30.8687 5.19342 31.0044 5.13477 31.1635 5.13477H46.0446C46.2001 5.13477 46.3401 5.19342 46.4661 5.31289C46.5949 5.42949 46.654 5.56755 46.654 5.72492V10.218C46.654 10.376 46.5949 10.5155 46.4661 10.6321Z" fill="#172126"/>
<path fill-rule="evenodd" clip-rule="evenodd" d="M27.933 26.9174C27.8203 27.0369 27.6846 27.0955 27.5305 27.0955H21.8592C21.7058 27.0955 21.5644 27.0369 21.4377 26.9174C21.316 26.7973 21.2471 26.662 21.2471 26.5055V21.699C21.2471 21.5402 21.316 21.4029 21.4377 21.2842C21.5644 21.1668 21.7058 21.1074 21.8592 21.1074H27.5305C27.6846 21.1074 27.8203 21.1668 27.933 21.2842C28.0463 21.4029 28.1103 21.5402 28.1103 21.699V26.5055C28.1103 26.662 28.0463 26.7973 27.933 26.9174Z" fill="#172126"/>
<path fill-rule="evenodd" clip-rule="evenodd" d="M27.933 18.6146C27.8203 18.734 27.6846 18.792 27.5305 18.792H21.8592C21.7058 18.792 21.5644 18.734 21.4377 18.6146C21.316 18.4965 21.2471 18.3592 21.2471 18.2005V5.72492C21.2471 5.56755 21.316 5.42949 21.4377 5.31289C21.5644 5.19342 21.7058 5.13477 21.8592 5.13477H27.5305C27.6846 5.13477 27.8203 5.19342 27.933 5.31289C28.0463 5.42949 28.1103 5.56755 28.1103 5.72492V18.2005C28.1103 18.3592 28.0463 18.4965 27.933 18.6146Z" fill="#172126"/>
<path fill-rule="evenodd" clip-rule="evenodd" d="M10.8685 11.0027C11.005 10.8746 11.2583 10.8095 11.622 10.8095H17.4692C17.6233 10.8095 17.7641 10.7509 17.878 10.6321C17.9899 10.5155 18.0448 10.376 18.0448 10.2179V5.75353C18.0448 5.5983 17.9899 5.46668 17.878 5.35867C17.7641 5.2485 17.6233 5.18555 17.4692 5.16409C17.3953 5.15479 17.3102 5.14621 17.2336 5.13477H4.40911C4.25853 5.13477 4.11851 5.19342 3.99537 5.31289C3.86872 5.42949 3.80469 5.56755 3.80469 5.72492V26.5055C3.80469 26.6621 3.86872 26.7974 3.99537 26.9175C4.11851 27.037 4.25853 27.0957 4.40911 27.0957H10.0881C10.2373 27.0957 10.3731 27.037 10.492 26.9175C10.6102 26.7974 10.67 26.6621 10.67 26.5055V18.7026H17.4692C17.6233 18.7026 17.7641 18.6418 17.878 18.5231C17.9899 18.4086 18.0448 18.2691 18.0448 18.1103V13.9413C18.0448 13.7853 17.9899 13.6494 17.878 13.5285C17.7641 13.4112 17.6233 13.3526 17.4692 13.3526H10.67V11.7574C10.67 11.3818 10.7319 11.13 10.8685 11.0027Z" fill="#172126"/>
</svg>
